<?xml version="1.0" encoding="UTF-8"?>
<svg id="Ebene_1" xmlns="http://www.w3.org/2000/svg" xmlns:xlink="http://www.w3.org/1999/xlink" version="1.1" viewBox="0 0 592.44 128.98">
  <!-- Generator: Adobe Illustrator 30.2.1, SVG Export Plug-In . SVG Version: 2.1.1 Build 1)  -->
  <defs>
    <style>
      .st0 {
        fill: none;
      }

      .st1 {
        fill: #ee7d00;
      }

      .st2 {
        clip-path: url(#clippath);
      }
    </style>
    <clipPath id="clippath">
      <rect class="st0" width="592.44" height="128.98"/>
    </clipPath>
  </defs>
  <g class="st2">
    <path class="st1" d="M572.77,77.86c.3-.9.67-1.59,1.1-2.06.43-.47,1.01-.78,1.74-.93.73-.15,1.68-.23,2.84-.23.99,0,1.78.06,2.39.16.6.11,1.03.34,1.29.71.26.37.39.91.39,1.65,0,.43-.04.92-.13,1.48-.09.56-.19,1.23-.32,2l-.19.77h-10c.3-1.46.6-2.64.9-3.55M578.93,101.02c1.53-.09,2.97-.22,4.32-.39s2.5-.36,3.45-.58l1.48-7.22c-1.12.09-2.3.17-3.55.26-1.25.09-2.44.15-3.58.19-1.14.04-2.14.06-3,.06-2.19,0-3.86-.06-5-.19-1.14-.13-1.91-.4-2.32-.81-.41-.41-.61-1.04-.61-1.9,0-.43.07-.99.19-1.68.13-.69.26-1.35.39-2h19.61l.58-2.52c.3-1.2.57-2.38.81-3.51.24-1.14.42-2.24.55-3.29.13-1.05.19-1.99.19-2.81,0-1.76-.38-3.18-1.13-4.26-.75-1.07-2.06-1.87-3.93-2.39-1.87-.52-4.48-.77-7.84-.77-3.53,0-6.36.33-8.51,1-2.15.67-3.84,1.69-5.06,3.06-1.22,1.38-2.2,3.14-2.93,5.29-.73,2.15-1.4,4.71-2,7.67-.39,1.76-.68,3.38-.87,4.84-.19,1.46-.29,2.77-.29,3.93,0,1.89.43,3.45,1.29,4.68.86,1.23,2.36,2.11,4.52,2.64,2.15.54,5.12.81,8.9.81,1.38,0,2.83-.04,4.35-.13M535.49,92.7c-.69-.13-1.18-.39-1.48-.77-.3-.39-.45-.99-.45-1.81,0-.65.08-1.45.23-2.42.15-.97.38-2.14.68-3.51.47-2.02.88-3.61,1.23-4.77.34-1.16.75-2.02,1.23-2.58.47-.56,1.08-.92,1.84-1.1.75-.17,1.75-.26,3-.26,1.68,0,2.83.24,3.45.71.62.47.94,1.33.94,2.58,0,.52-.05,1.18-.16,2-.11.82-.27,1.68-.48,2.58-.22.9-.43,1.8-.65,2.68-.22.88-.45,1.7-.71,2.45-.26.75-.49,1.36-.71,1.84-.3.6-.68,1.1-1.13,1.48-.45.39-1.01.67-1.68.84-.67.17-1.49.26-2.48.26-1.08,0-1.96-.07-2.64-.19M536.27,100.82c1.16-.21,2.27-.66,3.32-1.32,1.05-.67,1.97-1.64,2.74-2.93h.58l-.65,4.06h9.87l10.19-47.92h-10.38l-3.93,18.7h-.52c-.47-1.16-1.18-2.04-2.13-2.65-.95-.6-2.05-1.01-3.32-1.22-1.27-.22-2.68-.32-4.22-.32-1.89,0-3.55.26-4.97.77-1.42.51-2.66,1.41-3.71,2.68-1.05,1.27-1.98,2.99-2.77,5.16-.8,2.17-1.54,4.89-2.22,8.16-.39,1.76-.66,3.36-.81,4.81-.15,1.44-.23,2.7-.23,3.77,0,2.24.33,3.98,1,5.22.67,1.25,1.72,2.12,3.16,2.61,1.44.49,3.28.74,5.51.74,1.16,0,2.32-.11,3.48-.32M515.95,100.63l2-9.22h-10.96l-1.93,9.22h10.9ZM468.56,28.21h.94l3.9,36.88h-24.63l19.79-36.88ZM430.6,100.63l9.96-18.31h34.06l2.15,18.31h22.88l-10.63-92.61h-31.9l-50.07,92.61h23.56ZM353.07,100.63l11.85-55.59h.94l21.54,55.59h22.21l19.79-92.61h-22.21l-10.9,50.61h-.94l-20.33-50.61h-24.36l-19.79,92.61h22.21ZM318.34,100.63l19.79-92.61h-23.56l-19.79,92.61h23.56ZM253.73,25.25h13.33c2.87,0,5.14.2,6.8.61,1.66.4,2.85,1.03,3.57,1.88.72.85,1.08,2.09,1.08,3.7,0,.99-.11,2.11-.34,3.37-.23,1.26-.47,2.69-.74,4.31-.63,2.69-1.26,4.94-1.89,6.73-.63,1.8-1.48,3.19-2.56,4.17-1.08.99-2.56,1.68-4.44,2.09-1.89.4-4.35.61-7.4.61h-13.19l5.79-27.46ZM237.71,100.63l6.6-30.56h22.48c6.37,0,11.58-.72,15.61-2.15,4.04-1.43,7.22-3.48,9.56-6.12,2.33-2.65,4.15-5.81,5.45-9.49,1.3-3.68,2.4-7.72,3.3-12.11.54-2.51.96-4.89,1.28-7.13.31-2.24.47-4.31.47-6.19,0-4.04-.74-7.47-2.22-10.3-1.48-2.83-4.06-4.96-7.74-6.39-3.68-1.43-8.88-2.15-15.61-2.15h-42.94l-19.79,92.61h23.56ZM178.28,126.41c4.08-1.3,7.43-3.39,10.03-6.26,2.6-2.87,4.73-6.62,6.39-11.24,1.66-4.62,3.21-10.3,4.64-17.03l12.79-59.9h-8.21l-8.35,38.77c-.9,4.22-2.02,7.83-3.37,10.84-1.35,3.01-3.03,5.43-5.05,7.27-2.02,1.84-4.44,3.19-7.27,4.04-2.83.85-6.17,1.28-10.03,1.28s-6.96-.22-9.29-.67c-2.33-.45-4.04-1.32-5.12-2.62-1.08-1.3-1.62-3.3-1.62-5.99,0-1.43.16-3.21.47-5.32.31-2.11.79-4.51,1.41-7.2l8.61-40.38h-8.21l-9.15,42.94c-.54,2.42-.94,4.67-1.21,6.73-.27,2.07-.4,3.99-.4,5.79,0,3.23.63,5.9,1.88,8.01,1.26,2.11,3.43,3.63,6.53,4.58,3.1.94,7.29,1.41,12.59,1.41,5.02,0,9.11-.47,12.25-1.41,3.14-.94,5.67-2.29,7.6-4.04,1.93-1.75,3.52-3.65,4.78-5.72h.67c-.36,1.44-.72,2.92-1.08,4.44-.36,1.53-.72,3.01-1.08,4.44-.81,3.23-1.71,6.19-2.69,8.88-.99,2.69-2.38,5.03-4.17,7-1.8,1.97-4.29,3.5-7.47,4.58-3.19,1.08-7.43,1.61-12.72,1.61-1.88,0-4.08-.02-6.6-.07-2.51-.05-5.12-.14-7.81-.27-2.69-.13-5.38-.29-8.08-.47l-1.48,6.86c1.97.18,4.31.36,7,.54,2.69.18,5.54.31,8.55.4,3.01.09,5.85.14,8.55.14,6.37,0,11.6-.65,15.68-1.95M90.19,49.88c1.17-3.23,2.62-5.72,4.37-7.47,1.75-1.75,4.13-2.94,7.14-3.57,3-.63,6.89-.94,11.64-.94,3.77,0,6.82.25,9.15.74,2.33.49,4.08,1.46,5.25,2.89,1.17,1.44,1.75,3.68,1.75,6.73,0,1.44-.18,3.16-.54,5.18-.36,2.02-.76,4.33-1.21,6.93l-.54,2.42h-40.52c1.17-5.38,2.33-9.69,3.5-12.92M110.24,101.5c2.78-.14,5.43-.36,7.94-.67,2.51-.31,4.67-.65,6.46-1.01l1.48-6.86c-2.15.36-4.56.65-7.2.88-2.65.23-5.34.43-8.08.61-2.74.18-5.23.27-7.47.27-5.12,0-9.15-.34-12.11-1.01-2.96-.67-5.07-1.79-6.33-3.37-1.26-1.57-1.88-3.84-1.88-6.8,0-1.7.22-3.77.67-6.19.45-2.42.99-5.16,1.61-8.21h48.59l.54-2.83c.63-2.78,1.19-5.47,1.68-8.08.49-2.6.88-4.96,1.14-7.07.27-2.11.4-3.7.4-4.78,0-3.86-.72-6.89-2.15-9.09-1.44-2.2-3.86-3.81-7.27-4.85-3.41-1.03-8.12-1.55-14.13-1.55-6.82,0-12.34.63-16.56,1.88-4.22,1.26-7.54,3.28-9.96,6.06-2.42,2.78-4.35,6.44-5.79,10.97-1.44,4.53-2.83,10.07-4.17,16.62-.81,3.77-1.46,7.2-1.95,10.3-.49,3.1-.74,5.81-.74,8.14,0,4.22.83,7.56,2.49,10.03,1.66,2.47,4.51,4.22,8.55,5.25,4.04,1.03,9.42,1.55,16.15,1.55,2.6,0,5.29-.07,8.08-.2M8.08,100.63l7.54-35.4c.72-3.41,1.57-6.73,2.56-9.96.99-3.23,2.38-6.14,4.17-8.75,1.79-2.6,4.28-4.67,7.47-6.19,3.18-1.52,7.42-2.29,12.72-2.29,5.92,0,10.12.56,12.59,1.68,2.47,1.12,3.7,3.75,3.7,7.88,0,1.44-.18,3.19-.54,5.25-.36,2.07-.76,4.35-1.21,6.86l-8.62,40.92h8.08l9.02-42.27c.54-2.42.94-4.69,1.21-6.8.27-2.11.4-4.01.4-5.72,0-3.5-.65-6.35-1.95-8.55-1.3-2.2-3.52-3.81-6.66-4.85-3.14-1.03-7.54-1.55-13.19-1.55-4.85,0-8.86.52-12.05,1.55-3.19,1.03-5.72,2.38-7.6,4.04-1.89,1.66-3.41,3.48-4.58,5.45h-.67L29.21.62h-8.08L0,100.63h8.08Z"/>
  </g>
</svg>